<svg width="120" height="32" viewBox="0 0 120 32" fill="none" xmlns="http://www.w3.org/2000/svg">
<rect x="0.5" y="0.5" width="31" height="31" rx="15.5" fill="white" stroke="#E1E1E1"/>
<path d="M12.9267 19.6923C12.2498 19.6923 11.7021 20.2462 11.7021 20.9231C11.7021 21.6 12.2498 22.1539 12.9267 22.1539C13.6036 22.1539 14.1575 21.6 14.1575 20.9231C14.1575 20.2462 13.6036 19.6923 12.9267 19.6923ZM9.23438 10.4616C9.23438 10.8 9.5113 11.077 9.84976 11.077H10.4651L12.6805 15.7477L11.8498 17.2493C11.4005 18.0739 11.9913 19.077 12.9267 19.077H19.6959C20.0344 19.077 20.3113 18.8 20.3113 18.4616C20.3113 18.1231 20.0344 17.8462 19.6959 17.8462H12.9267L13.6036 16.6154H18.1882C18.6498 16.6154 19.0559 16.3631 19.2651 15.9816L21.4682 11.9877C21.6959 11.5816 21.4005 11.077 20.9328 11.077H11.8251L11.4128 10.197C11.3144 9.98158 11.0928 9.84619 10.859 9.84619H9.84976C9.5113 9.84619 9.23438 10.1231 9.23438 10.4616ZM19.0805 19.6923C18.4036 19.6923 17.8559 20.2462 17.8559 20.9231C17.8559 21.6 18.4036 22.1539 19.0805 22.1539C19.7575 22.1539 20.3113 21.6 20.3113 20.9231C20.3113 20.2462 19.7575 19.6923 19.0805 19.6923Z" fill="#2673F0"/>
<rect x="44.5" y="0.5" width="31" height="31" rx="15.5" fill="white" stroke="#E1E1E1"/>
<path d="M65.3608 11.9495C65.06 11.6485 64.7029 11.4098 64.3098 11.2469C63.9167 11.0841 63.4954 11.0002 63.0699 11.0002C62.6445 11.0002 62.2231 11.0841 61.8301 11.2469C61.437 11.4098 61.0799 11.6485 60.7791 11.9495L60.1548 12.5737L59.5306 11.9495C58.923 11.3419 58.099 11.0006 57.2398 11.0006C56.3805 11.0006 55.5565 11.3419 54.9489 11.9495C54.3413 12.557 54 13.3811 54 14.2403C54 15.0995 54.3413 15.9236 54.9489 16.5312L55.5731 17.1554L60.1548 21.7371L64.7365 17.1554L65.3608 16.5312C65.6617 16.2304 65.9004 15.8732 66.0633 15.4802C66.2262 15.0871 66.31 14.6658 66.31 14.2403C66.31 13.8148 66.2262 13.3935 66.0633 13.0005C65.9004 12.6074 65.6617 12.2502 65.3608 11.9495Z" fill="#595959"/>
<rect x="88.5" y="0.5" width="31" height="31" rx="15.5" fill="white" stroke="#E1E1E1"/>
<path d="M103.25 21.25C106.564 21.25 109.25 18.5637 109.25 15.25C109.25 11.9363 106.564 9.25 103.25 9.25C99.9363 9.25 97.25 11.9363 97.25 15.25C97.25 18.5637 99.9363 21.25 103.25 21.25Z" fill="#595959"/>
<path d="M110.751 22.7498L107.488 19.4873" stroke="#595959" stroke-width="1.5" stroke-linecap="round"/>
</svg>
