<svg width="16" height="16" viewBox="0 0 16 16" fill="none" xmlns="http://www.w3.org/2000/svg">
<path fill-rule="evenodd" clip-rule="evenodd" d="M8.00156 2.00777C7.819 1.98266 7.62699 2.03539 7.47959 2.16879L2.21259 6.93545C1.94893 7.17406 1.92762 7.58086 2.16489 7.84573C2.40387 8.1125 2.81424 8.134 3.07979 7.89368L3.47544 7.53561V12.7047V13C3.47544 13.5523 3.92316 14 4.47544 14H4.76419H11.2079H11.4967C12.049 14 12.4967 13.5523 12.4967 13V12.7047V7.50758L12.9233 7.89368C13.1889 8.134 13.5992 8.1125 13.8382 7.84573C14.0755 7.58086 14.0542 7.17406 13.7905 6.93545L8.52352 2.16879C8.37613 2.03539 8.18411 1.98266 8.00156 2.00777ZM4.76419 6.36929V7.22798V8.18566V8.22798V10.7047V12V12.0423V12.7047H5.43111H5.47544H6.76419H9.20795H10.4967H10.541H11.2079V12.0423V12V10.7047V8.22798V8.18566V7.22798V6.34125L8.00156 3.43945L4.76419 6.36929Z" fill="#5F6368"/>
</svg>
