<svg width="144" height="24" viewBox="0 0 144 24" fill="none" xmlns="http://www.w3.org/2000/svg">
<path d="M7.99688 2.39844C4.90968 2.39844 2.39844 4.912 2.39844 8V16C2.39844 19.0872 4.912 21.5984 8 21.5984H16C19.0872 21.5984 21.5984 19.0849 21.5984 15.9969V7.99688C21.5984 4.90968 19.0849 2.39844 15.9969 2.39844H7.99688ZM17.5984 5.59844C18.04 5.59844 18.3984 5.95684 18.3984 6.39844C18.3984 6.84004 18.04 7.19844 17.5984 7.19844C17.1568 7.19844 16.7984 6.84004 16.7984 6.39844C16.7984 5.95684 17.1568 5.59844 17.5984 5.59844ZM11.9984 7.19844C14.6456 7.19844 16.7984 9.35124 16.7984 11.9984C16.7984 14.6456 14.6456 16.7984 11.9984 16.7984C9.35124 16.7984 7.19844 14.6456 7.19844 11.9984C7.19844 9.35124 9.35124 7.19844 11.9984 7.19844ZM11.9984 8.79844C11.1497 8.79844 10.3358 9.13558 9.7357 9.7357C9.13558 10.3358 8.79844 11.1497 8.79844 11.9984C8.79844 12.8471 9.13558 13.6611 9.7357 14.2612C10.3358 14.8613 11.1497 15.1984 11.9984 15.1984C12.8471 15.1984 13.6611 14.8613 14.2612 14.2612C14.8613 13.6611 15.1984 12.8471 15.1984 11.9984C15.1984 11.1497 14.8613 10.3358 14.2612 9.7357C13.6611 9.13558 12.8471 8.79844 11.9984 8.79844Z" fill="white"/>
<path d="M52.0014 1.44141C46.1694 1.44141 41.4414 6.16941 41.4414 12.0014C41.4414 17.2958 45.3414 21.6672 50.4232 22.4308V14.8003H47.8105V12.0244H50.4232V10.1774C50.4232 7.11933 51.9131 5.77677 54.4547 5.77677C55.672 5.77677 56.3156 5.86701 56.6204 5.90829V8.33133H54.8867C53.8076 8.33133 53.4308 9.35421 53.4308 10.5072V12.0244H56.5931L56.164 14.8003H53.4308V22.4534C58.5851 21.754 62.5614 17.3472 62.5614 12.0014C62.5614 6.16941 57.8334 1.44141 52.0014 1.44141Z" fill="white"/>
<path d="M100.167 2H83.8327C82.8333 2 82 2.83333 82 3.83268V20.1673C82 21.1667 82.8333 22 83.8327 22H100.167C101.167 22 102 21.1667 102 20.1673V3.83268C102 2.83333 101.167 2 100.167 2ZM87.8333 18.6667H84.5V9.5H87.8333V18.6667ZM86.1667 8.41602C85.1673 8.41602 84.5 7.7487 84.5 6.91536C84.5 6.00065 85.1673 5.33333 86.1667 5.33333C87.166 5.33333 87.8333 6.00065 87.8333 6.83398C87.8333 7.7487 87.166 8.41602 86.1667 8.41602ZM99.5 18.6667H96.1667V13.6667C96.1667 12.332 95.2487 12 95.0013 12C94.7507 12 93.6667 12.166 93.6667 13.6667C93.6667 13.8327 93.6667 18.6667 93.6667 18.6667H90.3333V9.5H93.6667V10.8346C94.168 10.0827 95.0013 9.5 96.5833 9.5C98.1654 9.5 99.5 10.75 99.5 13.6667V18.6667Z" fill="white"/>
<path d="M136.114 2C141.573 2 142 2.427 142 7.8865V16.113C142 21.5725 141.573 22 136.114 22H127.887C122.428 22 122 21.5725 122 16.1135V7.8865C122 2.427 122.428 2 127.887 2H136.114ZM137.899 9.7755C138.427 9.3945 138.885 8.9195 139.247 8.3785C138.51 8.713 137.696 8.8035 137.696 8.8035C137.696 8.8035 138.647 8.253 138.882 7.3105C138.361 7.6195 137.784 7.8445 137.169 7.9655C136.676 7.441 135.975 7.113 135.198 7.113C133.708 7.113 132.5 8.322 132.5 9.812C132.5 10.0235 132.569 10.4265 132.569 10.4265C132.569 10.4265 129.312 10.446 127.007 7.606C127.007 7.606 126.652 8.0805 126.642 8.9635C126.625 10.46 127.842 11.2095 127.842 11.2095C127.842 11.2095 127.23 11.226 126.619 10.872C126.674 13.19 128.784 13.552 128.784 13.552C128.784 13.552 128.102 13.683 127.565 13.5985C127.908 14.6705 128.906 15.4515 130.086 15.473C129.163 16.197 127.999 16.6285 126.734 16.6285C126.516 16.6285 126.302 16.616 126.09 16.5905C126.717 17.269 128.703 17.803 130.227 17.803C135.192 17.803 137.906 13.6905 137.906 10.124C137.906 10.0075 137.904 9.8915 137.899 9.7755Z" fill="white"/>
</svg>
