<svg width="24" height="24" viewBox="0 0 24 24" fill="none" xmlns="http://www.w3.org/2000/svg">
<path fill-rule="evenodd" clip-rule="evenodd" d="M3.81818 12C3.81818 7.48131 7.48131 3.81818 12 3.81818C16.5187 3.81818 20.1818 7.48131 20.1818 12C20.1818 16.5187 16.5187 20.1818 12 20.1818C7.48131 20.1818 3.81818 16.5187 3.81818 12ZM12 2C6.47715 2 2 6.47715 2 12C2 17.5228 6.47715 22 12 22C17.5228 22 22 17.5228 22 12C22 6.47715 17.5228 2 12 2ZM17.455 12C17.455 15.0124 15.0129 17.4545 12.0004 17.4545C8.98798 17.4545 6.5459 15.0124 6.5459 12C6.5459 8.98749 8.98798 6.54541 12.0004 6.54541C15.0129 6.54541 17.455 8.98749 17.455 12Z" fill="#DF0404"/>
</svg>
