<svg width="22" height="22" viewBox="0 0 22 22" fill="none" xmlns="http://www.w3.org/2000/svg">
<g opacity="0.5" clip-path="url(#clip0_1_5701)">
<path opacity="0.5" d="M10.9987 1.83331C5.9387 1.83331 1.83203 5.93998 1.83203 11C1.83203 16.06 5.9387 20.1666 10.9987 20.1666C16.0587 20.1666 20.1654 16.06 20.1654 11C20.1654 5.93998 16.0587 1.83331 10.9987 1.83331ZM10.9987 15.5833C10.4945 15.5833 10.082 15.1708 10.082 14.6666V11C10.082 10.4958 10.4945 10.0833 10.9987 10.0833C11.5029 10.0833 11.9154 10.4958 11.9154 11V14.6666C11.9154 15.1708 11.5029 15.5833 10.9987 15.5833ZM11.9154 8.24998H10.082V6.41665H11.9154V8.24998Z" fill="#323232"/>
</g>
<defs>
<clipPath id="clip0_1_5701">
<rect width="22" height="22" fill="white"/>
</clipPath>
</defs>
</svg>
