<svg width="20" height="20" viewBox="0 0 20 20" fill="none" xmlns="http://www.w3.org/2000/svg">
<path fill-rule="evenodd" clip-rule="evenodd" d="M15.713 10.9524H10.9511V15.7143C10.9511 16.2381 10.5225 16.6667 9.9987 16.6667C9.47489 16.6667 9.04632 16.2381 9.04632 15.7143V10.9524H4.28441C3.7606 10.9524 3.33203 10.5238 3.33203 9.99999C3.33203 9.47619 3.7606 9.04761 4.28441 9.04761H9.04632V4.28571C9.04632 3.7619 9.47489 3.33333 9.9987 3.33333C10.5225 3.33333 10.9511 3.7619 10.9511 4.28571V9.04761H15.713C16.2368 9.04761 16.6654 9.47619 16.6654 9.99999C16.6654 10.5238 16.2368 10.9524 15.713 10.9524Z" fill="#3C4043"/>
</svg>
