<svg width="16" height="16" viewBox="0 0 16 16" fill="none" xmlns="http://www.w3.org/2000/svg">
<path fill-rule="evenodd" clip-rule="evenodd" d="M8.16797 5C8.99297 5 9.66797 4.325 9.66797 3.5C9.66797 2.675 8.99297 2 8.16797 2C7.34297 2 6.66797 2.675 6.66797 3.5C6.66797 4.325 7.34297 5 8.16797 5ZM8.16797 6.5C7.34297 6.5 6.66797 7.175 6.66797 8C6.66797 8.825 7.34297 9.5 8.16797 9.5C8.99297 9.5 9.66797 8.825 9.66797 8C9.66797 7.175 8.99297 6.5 8.16797 6.5ZM8.16797 11C7.34297 11 6.66797 11.675 6.66797 12.5C6.66797 13.325 7.34297 14 8.16797 14C8.99297 14 9.66797 13.325 9.66797 12.5C9.66797 11.675 8.99297 11 8.16797 11Z" fill="#5F6368"/>
</svg>
