<svg width="111" height="18" viewBox="0 0 111 18" fill="none" xmlns="http://www.w3.org/2000/svg">
<path d="M16.2097 5.08541C16.916 4.55568 17.5517 3.92 18.0461 3.17838C17.4105 3.4609 16.6688 3.67279 15.9272 3.74342C16.7042 3.28433 17.2692 2.57802 17.5517 1.69514C16.8454 2.11892 16.0332 2.43676 15.2209 2.61333C14.5146 1.87171 13.5611 1.44793 12.5016 1.44793C10.4533 1.44793 8.79352 3.10775 8.79352 5.15604C8.79352 5.43856 8.82883 5.72108 8.89946 6.00361C5.82703 5.82703 3.07243 4.34379 1.23604 2.11892C0.918199 2.64865 0.741622 3.28433 0.741622 3.99063C0.741622 5.26198 1.3773 6.39207 2.40144 7.06307C1.80108 7.02775 1.20072 6.88649 0.706307 6.60397V6.63928C0.706307 8.44036 1.97766 9.92361 3.67279 10.2768C3.39027 10.3474 3.03712 10.418 2.71928 10.418C2.47207 10.418 2.26018 10.3827 2.01297 10.3474C2.47207 11.8306 3.84937 12.8901 5.47388 12.9254C4.20252 13.9142 2.61333 14.5146 0.882883 14.5146C0.565045 14.5146 0.282523 14.4793 0 14.444C1.62451 15.5034 3.56685 16.1038 5.68577 16.1038C12.5016 16.1038 16.2097 10.4887 16.2097 5.57982C16.2097 5.40325 16.2097 5.26198 16.2097 5.08541Z" fill="white"/>
<path d="M65.3255 8.7582C65.3255 3.92 61.4055 0 56.5673 0C51.7291 0 47.8091 3.92 47.8091 8.7582C47.8091 13.1373 50.9875 16.7748 55.19 17.4105V11.3009H52.9651V8.7582H55.19V6.85117C55.19 4.66162 56.4967 3.42559 58.4743 3.42559C59.4632 3.42559 60.452 3.60216 60.452 3.60216V5.7564H59.3572C58.2624 5.7564 57.9093 6.42739 57.9093 7.1337V8.7582H60.346L59.9576 11.3009H57.9093V17.4105C62.1118 16.7748 65.3255 13.1373 65.3255 8.7582Z" fill="white"/>
<path d="M102.489 7.80469H96.0616V10.1355H99.911C99.7697 11.1243 98.7456 13.0667 96.0616 13.0667C93.7661 13.0667 91.8591 11.1596 91.8591 8.7582C91.8591 6.39207 93.7661 4.48505 96.0616 4.48505C97.4036 4.48505 98.2865 5.05009 98.7809 5.54451L100.617 3.77874C99.4166 2.64865 97.898 1.97766 96.0616 1.97766C92.3182 1.97766 89.2811 5.01478 89.2811 8.7582C89.2811 12.5369 92.3182 15.5387 96.0616 15.5387C99.9816 15.5387 102.595 12.8195 102.595 8.93478C102.595 8.47568 102.524 8.15784 102.489 7.80469ZM109.022 8.01658V6.07424H107.045V8.01658H105.067V9.99424H107.045V11.9719H109.022V9.99424H111V8.01658H109.022Z" fill="white"/>
</svg>
