<svg width="20" height="20" viewBox="0 0 20 20" fill="none" xmlns="http://www.w3.org/2000/svg">
<g clip-path="url(#clip0_0_63)">
<path d="M3.41533 0.188759C3.73957 -0.0449367 4.17182 -0.0631242 4.51454 0.142509L19.5145 9.14251C19.8157 9.32323 20 9.64874 20 10C20 10.3513 19.8157 10.6768 19.5145 10.8575L4.51454 19.8575C4.17182 20.0631 3.73957 20.0449 3.41533 19.8112C3.0911 19.5775 2.93715 19.1732 3.02386 18.7831L4.75343 11L10 11C10.5523 11 11 10.5523 11 10C11 9.44772 10.5523 9 10 9L4.75343 9L3.02386 1.21693C2.93715 0.826771 3.0911 0.422456 3.41533 0.188759Z" fill="white"/>
</g>
<defs>
<clipPath id="clip0_0_63">
<rect width="20" height="20" fill="white"/>
</clipPath>
</defs>
</svg>
