<svg width="96" height="16" viewBox="0 0 96 16" fill="none" xmlns="http://www.w3.org/2000/svg">
<path d="M7.9987 1.3335L10.0587 5.50683L14.6654 6.18016L11.332 9.42683L12.1187 14.0135L7.9987 11.8468L3.8787 14.0135L4.66536 9.42683L1.33203 6.18016L5.9387 5.50683L7.9987 1.3335Z" fill="#FFCC56"/>
<path d="M27.9987 1.3335L30.0587 5.50683L34.6654 6.18016L31.332 9.42683L32.1187 14.0135L27.9987 11.8468L23.8787 14.0135L24.6654 9.42683L21.332 6.18016L25.9387 5.50683L27.9987 1.3335Z" fill="#FFCC56"/>
<path d="M47.9987 1.3335L50.0587 5.50683L54.6654 6.18016L51.332 9.42683L52.1187 14.0135L47.9987 11.8468L43.8787 14.0135L44.6654 9.42683L41.332 6.18016L45.9387 5.50683L47.9987 1.3335Z" fill="#FFCC56"/>
<path d="M67.9987 1.3335L70.0587 5.50683L74.6654 6.18016L71.332 9.42683L72.1187 14.0135L67.9987 11.8468L63.8787 14.0135L64.6654 9.42683L61.332 6.18016L65.9387 5.50683L67.9987 1.3335Z" fill="#ECECEC"/>
<path d="M87.9987 1.3335L90.0587 5.50683L94.6654 6.18016L91.332 9.42683L92.1187 14.0135L87.9987 11.8468L83.8787 14.0135L84.6654 9.42683L81.332 6.18016L85.9387 5.50683L87.9987 1.3335Z" fill="#ECECEC"/>
</svg>
