<svg width="120" height="32" viewBox="0 0 120 32" fill="none" xmlns="http://www.w3.org/2000/svg">
<rect x="0.5" y="0.5" width="31" height="31" rx="15.5" fill="#EBEBEB" stroke="#E2E2E2"/>
<path d="M12.9267 19.6943C12.2498 19.6943 11.7021 20.2481 11.7021 20.9251C11.7021 21.602 12.2498 22.1558 12.9267 22.1558C13.6036 22.1558 14.1575 21.602 14.1575 20.9251C14.1575 20.2481 13.6036 19.6943 12.9267 19.6943ZM9.23438 10.4635C9.23438 10.802 9.5113 11.0789 9.84976 11.0789H10.4651L12.6805 15.7497L11.8498 17.2512C11.4005 18.0758 11.9913 19.0789 12.9267 19.0789H19.6959C20.0344 19.0789 20.3113 18.802 20.3113 18.4635C20.3113 18.1251 20.0344 17.8481 19.6959 17.8481H12.9267L13.6036 16.6174H18.1882C18.6498 16.6174 19.0559 16.3651 19.2651 15.9835L21.4682 11.9897C21.6959 11.5835 21.4005 11.0789 20.9328 11.0789H11.8251L11.4128 10.1989C11.3144 9.98353 11.0928 9.84814 10.859 9.84814H9.84976C9.5113 9.84814 9.23438 10.1251 9.23438 10.4635ZM19.0805 19.6943C18.4036 19.6943 17.8559 20.2481 17.8559 20.9251C17.8559 21.602 18.4036 22.1558 19.0805 22.1558C19.7575 22.1558 20.3113 21.602 20.3113 20.9251C20.3113 20.2481 19.7575 19.6943 19.0805 19.6943Z" fill="#595959"/>
<rect x="44.5" y="0.5" width="31" height="31" rx="15.5" fill="#EBEBEB" stroke="#E2E2E2"/>
<path d="M65.3608 11.9512C65.06 11.6502 64.7029 11.4115 64.3098 11.2487C63.9167 11.0858 63.4954 11.002 63.0699 11.002C62.6445 11.002 62.2231 11.0858 61.8301 11.2487C61.437 11.4115 61.0799 11.6502 60.7791 11.9512L60.1548 12.5754L59.5306 11.9512C58.923 11.3436 58.099 11.0023 57.2398 11.0023C56.3805 11.0023 55.5565 11.3436 54.9489 11.9512C54.3413 12.5587 54 13.3828 54 14.242C54 15.1013 54.3413 15.9253 54.9489 16.5329L55.5731 17.1571L60.1548 21.7388L64.7365 17.1571L65.3608 16.5329C65.6617 16.2321 65.9004 15.8749 66.0633 15.4819C66.2262 15.0888 66.31 14.6675 66.31 14.242C66.31 13.8165 66.2262 13.3952 66.0633 13.0022C65.9004 12.6091 65.6617 12.252 65.3608 11.9512Z" fill="#595959"/>
<rect x="88.5" y="0.5" width="31" height="31" rx="15.5" fill="#EBEBEB" stroke="#E2E2E2"/>
<path d="M103.25 21.25C106.564 21.25 109.25 18.5637 109.25 15.25C109.25 11.9363 106.564 9.25 103.25 9.25C99.9363 9.25 97.25 11.9363 97.25 15.25C97.25 18.5637 99.9363 21.25 103.25 21.25Z" fill="#595959"/>
<path d="M110.751 22.7498L107.488 19.4873" stroke="#595959" stroke-width="1.5" stroke-linecap="round"/>
</svg>
