<svg width="16" height="16" viewBox="0 0 16 16" fill="none" xmlns="http://www.w3.org/2000/svg">
<path d="M4.66406 12.0026C3.93073 12.0026 3.3374 12.6026 3.3374 13.3359C3.3374 14.0693 3.93073 14.6693 4.66406 14.6693C5.3974 14.6693 5.9974 14.0693 5.9974 13.3359C5.9974 12.6026 5.3974 12.0026 4.66406 12.0026ZM0.664062 2.0026C0.664062 2.36927 0.964062 2.66927 1.33073 2.66927H1.9974L4.3974 7.72927L3.4974 9.35594C3.01073 10.2493 3.65073 11.3359 4.66406 11.3359H11.9974C12.3641 11.3359 12.6641 11.0359 12.6641 10.6693C12.6641 10.3026 12.3641 10.0026 11.9974 10.0026H4.66406L5.3974 8.66927H10.3641C10.8641 8.66927 11.3041 8.39594 11.5307 7.9826L13.9174 3.65594C14.1641 3.21594 13.8441 2.66927 13.3374 2.66927H3.47073L3.02406 1.71594C2.9174 1.4826 2.6774 1.33594 2.42406 1.33594H1.33073C0.964062 1.33594 0.664062 1.63594 0.664062 2.0026ZM11.3307 12.0026C10.5974 12.0026 10.0041 12.6026 10.0041 13.3359C10.0041 14.0693 10.5974 14.6693 11.3307 14.6693C12.0641 14.6693 12.6641 14.0693 12.6641 13.3359C12.6641 12.6026 12.0641 12.0026 11.3307 12.0026Z" fill="#1A1A1C"/>
</svg>
